<?xml version="1.0" encoding="utf-8"?>
<!-- Generator: Adobe Illustrator 26.2.1, SVG Export Plug-In . SVG Version: 6.00 Build 0)  -->
<svg version="1.1" id="Layer_1" xmlns="http://www.w3.org/2000/svg" xmlns:xlink="http://www.w3.org/1999/xlink" x="0px" y="0px"
	 viewBox="0 0 1069 849" style="enable-background:new 0 0 1069 849;" xml:space="preserve">
<style type="text/css">
	.st0{fill:#15C249;}
	.st1{fill-rule:evenodd;clip-rule:evenodd;fill:#F57446;}
</style>
<g>
	<path class="st0" d="M748.5,385c-2.2,17.2-7.6,34.2-15.6,49.7c3.3,4.6,6.1,9.5,8.2,14.8c-1.6-0.2-3.3-0.4-4.9-0.4l0,0
		c-6.2,0-12,1.7-17,4.6c-3.6-2.2-7.7-3.6-12-4.3c-1.6-0.2-3.3-0.4-4.9-0.4l0,0c-18.4,0-33.3,14.9-33.3,33.3s14.9,33.3,33.3,33.3l0,0
		c1.1,0,2.1,0,3.2-0.1c5-0.5,9.7-2.1,13.8-4.5c5,3,10.8,4.6,17,4.6l0,0c1.1,0,2.1,0,3.2-0.1c-8.4,19.7-23.2,36.4-41.9,46.5
		c-0.1,0.5-0.1,1-0.1,1.5c-0.7,6.5-1.4,12.7-2.3,18.8h-51.4c0.2-10.8,0-21.6-0.8-32.5c-2.4-34.2-9.8-68.7-23.1-105.4
		c9.9-5.8,16.5-16.5,16.5-28.8c0-6.7-1.9-12.9-5.3-18.1c4.7-22.1,2.9-45.5-6-67c-3.6-8.7-8.2-16.8-13.7-24.2
		c-2.1-2.9-4.4-5.7-6.8-8.3c-6.4-7.1-13.7-13.4-21.7-18.8c-1.3-13.9-4.7-27.7-10-40.5c-22.9-55.3-77.7-89.1-135.7-86.2
		c-21.6-39.4-62.7-63.9-107-65.5c6.3-38.9,29-69.6,58.8-76.6c21.5-5.1,43.9,1.7,62.2,18.3c13.9-15.2,31.7-24.1,50.2-25.1
		c20-1.1,38.9,6.5,54.8,21.7c21.1,20.2,34.3,52.1,36.3,86.7c18.2,3.8,34.6,13.7,48.2,29.1c22.8,25.7,34.3,63.4,31.7,103.4
		c-0.3,4.4-0.8,8.8-1.5,13.2c17.7,3.3,33.9,11.9,47,25.1l0,0c0.6,0.6,1.2,1.2,1.7,1.8c0.8,0.8,1.5,1.6,2.2,2.4
		C743.7,311.7,753.4,347.4,748.5,385z"/>
	<path class="st0" d="M615.9,582.5h-88.4c9.1-16.4,11-30.7,11.3-33.3c0-0.2,0-0.3,0-0.4c0.7-7.6-4.9-14.4-12.6-15.1
		c-7.6-0.7-14.4,4.9-15.1,12.5c0,0.2-0.1,1.3-0.5,3c-1.1,5.6-4.6,18-14.3,30.1c-2.6-9.8-5.4-19.3-8.3-28.4
		c-7.6-24-16.1-45.7-25.3-65.4c-0.4-1.5-1.1-2.8-2-4.1c-3.6-7.4-7.3-14.6-11-21.4c-6.5-11.9-13.2-22.9-20.1-33.1
		c-9.7-14.5-19.7-27.3-29.7-38.7c32.6-43.7,18.1-93.9,4.7-115.7c-4-6.5-12.6-8.6-19.1-4.6s-8.6,12.5-4.6,19.1
		c1.2,1.9,24.6,42.1-0.5,80.6c-3.4-3.3-6.9-6.6-10.2-9.6c-62.6-55.7-125.2-70.4-148.7-74.1c-10.6-25.7-36.7-41.1-37.9-41.8
		c-6.6-3.9-15.2-1.6-19,5s-1.6,15.1,5,19c4.4,2.6,14,9.8,20.8,19.1c-31,8.9-52.9,37.5-54,39c-4.6,6.1-3.4,14.8,2.7,19.5
		c4.1,3.1,9.3,3.6,13.7,1.7c2.2-0.9,4.2-2.4,5.8-4.5c6.8-8.9,29.2-31.8,51.6-30.5c3.9,0.3,30.6,3,66.3,18.7
		c-52.5,17.4-81.6,47.2-83.1,48.7c-5.3,5.5-5.1,14.4,0.4,19.7c4.1,3.9,10,4.8,15,2.8c1.7-0.7,3.3-1.8,4.7-3.2
		c0.8-0.8,36.8-36.8,99.3-48.6c18.2,11.4,37.4,26.3,56.2,45.6c0.7,1.7,1.8,3.3,3.2,4.6c0.9,0.9,2,1.6,3.1,2.1
		c14.5,15.8,28.6,34.2,41.8,55.8c1,1.7,2.1,3.4,3.1,5.2c-1.5-0.3-3.1-0.5-4.6-0.7c-35-4.3-69,8.9-71,9.7c0,0-0.1,0-0.1,0.1
		c-7,2.9-10.4,10.9-7.6,18s10.9,10.6,18,7.8c0.4-0.2,27-10.5,53.4-8.4c11.1,0.9,22.1,3.9,31.1,10.8c0.2,0.5,0.4,0.9,0.6,1.4
		c8.6,18.7,16.4,39.3,23.4,61.8c0.9,3,1.8,6.1,2.7,9.2c3.3,11.5,6.4,23.5,9.2,36c0.1,0.3,0.2,0.6,0.2,1c0.8,3.6,1.6,7.2,2.3,10.8
		c3.7,18.7,6.8,38,9.2,57.7c0.2,1.9,0.3,3.8,0.2,5.7h0.9c4.6,37.8,7,79.3,6.8,125.2l-0.6,7.4l-0.6,6.9c-11.4-0.9-22.2-4.1-31.4-9.8
		c-4.1-2.6-7.8-5.6-10.9-8.9c-7.7-11.9-12.9-25.5-15-40.1c-0.3-3.5-0.6-7-0.9-10.4c0-1.2-0.1-2.4-0.1-3.6v-39.3
		c-2.5-0.9-5-1.9-7.5-3c-10.6-44-29.8-74.8-57.2-92c-0.6-0.4-1.3-0.8-1.9-1.2c-50.2-29.7-118.2-9.2-154.5,5.8
		c-18.9,7.8-31.2,15-31.3,15.1l-12.4,7.3l-6.8-12.7c-0.9-1.7-21.8-41.5-9.3-79.6c0.7-2.2,1.6-4.4,2.5-6.5
		c-7.5,1.3-15.1,1.9-22.9,1.9c-53.8-0.4-101.8-31-122.5-78.1c-21.7-49.6-11-106.7,26.5-145c-11-45.4,9.6-93,50-116.3
		c-1.4-4.4-2.3-9-2.8-13.7c-3.1-28.8,11.6-57.6,36.5-71.6c16.3-9.1,34.3-11.5,51.6-7.7c8.7-12.8,20.8-22.9,35.1-28.8
		c36.7-15.2,78.4-0.7,98.3,32.3c45.5-8.9,92.4,15.5,110.5,59.2c1,2.4,1.8,4.7,2.7,7.2c52.3-11.4,106.1,15.9,127.2,66.7
		c6.1,14.7,8.9,30.6,8.4,46.5c6.8,3.1,13,7,18.7,11.6c3.6,2.9,7,6.1,10,9.6c6.2,7.1,11.3,15.2,15,24.1c5.5,13.3,7.4,27.4,6.1,41.1
		c-0.8-0.1-1.6-0.1-2.4-0.1l0,0c-6.2,0-12,1.7-17,4.6c-4.3-2.6-9.3-4.2-14.6-4.6c-0.8-0.1-1.6-0.1-2.4-0.1l0,0
		c-18.4,0-33.3,14.9-33.3,33.3c0,14.2,8.9,26.3,21.4,31.1c3.7,1.4,7.7,2.2,12,2.2l0,0c6.1,0,11.9-1.7,16.8-4.5
		c0.1,0,0.1-0.1,0.2-0.1c1.6,1,3.3,1.8,5,2.4c13.8,35.8,21.4,69.1,24.1,102.2C615.8,560.3,616.1,571.4,615.9,582.5z"/>
	<path class="st1" d="M1068.8,615.9c0-20-8.8-37.9-22.7-50.1c14.3-12.7,23.2-31.6,20.5-53.9c-9.8-81.4-51.9-140.2-113.4-177.6
		c-60.1-36.6-137.1-51.8-217.8-51.8c-5.8,0-11.7,0.1-17.5,0.2l0,0c-10.8,0.3-21.6,0.9-32.3,1.8c-28.2,2.4-55.5,6.8-81.4,13.7
		c-9.3,2.5-18.3,5.2-27.2,8.3c-1,0.4-2.1,0.7-3.1,1.1c-8.2,2.9-16.2,6.1-24,9.6c-11.2,5.1-22.1,10.7-32.4,17
		c-37.5,22.8-67.8,53.6-87.9,92.6c-4.9,9.4-9.1,19.3-12.8,29.7c-0.4,1.1-0.8,2.2-1.2,3.4c-0.1,0.4-0.2,0.8-0.4,1.1
		c-2.9,8.7-5.3,17.7-7.3,27.1c-0.8,4-1.6,8-2.2,12.1c-0.6,3.8-1.2,7.7-1.6,11.6c-1.1,9.2-0.2,17.9,2.2,25.7c-1.2,1-2.5,2-3.7,3.1
		c-1.7,1.5-3.3,3-4.8,4.5c-18.4,18.4-28.7,42.8-29.2,68.8c0,0.6,0,1.2,0,1.8c0,22.8,7.9,45.1,22.2,62.8c9.9,12.3,22.7,22,37,28.5
		c2.4,1.1,4.9,2.1,7.5,3v39.1c0,1.2,0,2.4,0.1,3.6c0.1,3.5,0.4,7,0.9,10.4c2,14.6,7.3,28.2,15,40.1c2.7,4.2,5.7,8.1,8.9,11.8
		c18.3,20.9,45.2,34,75.2,34h400c55.2,0,100-44.8,100-100v-66.7h-33.3c18.4,0,35.1-7.5,47.1-19.5
		C1061.3,650.9,1068.8,634.3,1068.8,615.9z M702.1,449.2L702.1,449.2c1.7,0,3.4,0.1,5,0.4c4.3,0.6,8.4,2.1,12,4.3
		c9.8,5.8,16.4,16.5,16.4,28.7s-6.6,22.9-16.4,28.7c-4.1,2.4-8.8,4-13.8,4.5c-1,0.1-2.1,0.1-3.2,0.1l0,0
		c-18.4,0-33.3-14.9-33.3-33.3C668.8,464.1,683.7,449.2,702.1,449.2z M568.8,382.5L568.8,382.5c0.8,0,1.6,0,2.4,0.1
		c5.3,0.4,10.3,2,14.6,4.6c4.4,2.6,8.2,6.3,11,10.6c3.4,5.2,5.3,11.4,5.3,18.1c0,12.2-6.6,22.9-16.4,28.7c-0.1,0-0.1,0.1-0.2,0.1
		c-4.9,2.9-10.7,4.5-16.8,4.5l0,0c-4.2,0-8.2-0.8-12-2.2c-12.5-4.8-21.4-16.9-21.4-31.1C535.5,397.5,550.4,382.5,568.8,382.5z
		 M802.1,682.5H487.2c0.1-1.9,0-3.8-0.2-5.7c-2.4-19.7-5.5-39.1-9.2-57.7c-0.2-1.1-0.4-2.1-0.6-3.2h220.5c14.6,0,27.5-9.5,31.8-23.4
		c1-3.3,1.5-6.6,1.5-9.9h171.1L802.1,682.5z M868.8,449.2L868.8,449.2c-18.4,0-33.4-14.9-33.4-33.3s14.9-33.3,33.3-33.3l0,0
		c18.4,0,33.3,14.9,33.3,33.3C902.2,434.3,887.2,449.2,868.8,449.2z"/>
</g>
</svg>
