<?xml version="1.0" encoding="utf-8"?>
<!-- Generator: Adobe Illustrator 26.2.1, SVG Export Plug-In . SVG Version: 6.00 Build 0)  -->
<svg version="1.1" id="Layer_1" xmlns="http://www.w3.org/2000/svg" xmlns:xlink="http://www.w3.org/1999/xlink" x="0px" y="0px"
	 viewBox="0 0 4655 987" style="enable-background:new 0 0 4655 987;" xml:space="preserve">
<style type="text/css">
	.st0{fill:#15C249;}
	.st1{fill-rule:evenodd;clip-rule:evenodd;fill:#F57446;}
	.st2{fill:#F57446;}
</style>
<g>
	<path class="st0" d="M748.1,381.9c-2.2,17.2-7.6,34.2-15.6,49.7c3.3,4.6,6.1,9.5,8.2,14.8c-1.6-0.2-3.3-0.4-4.9-0.4h0
		c-6.2,0-12,1.7-17,4.6c-3.6-2.2-7.7-3.6-12-4.3c-1.6-0.2-3.3-0.4-4.9-0.4h0c-18.4,0-33.3,14.9-33.3,33.3
		c0,18.4,14.9,33.3,33.3,33.3h0c1.1,0,2.1,0,3.2-0.1c5-0.5,9.7-2.1,13.8-4.5c5,3,10.8,4.6,17,4.6h0c1.1,0,2.1,0,3.2-0.1
		c-8.4,19.7-23.2,36.4-41.9,46.5c-0.1,0.5-0.1,1-0.1,1.5c-0.7,6.5-1.4,12.7-2.3,18.8h-51.4c0.2-10.8,0-21.6-0.8-32.5
		c-2.4-34.2-9.8-68.7-23.1-105.4c9.9-5.8,16.5-16.5,16.5-28.8c0-6.7-1.9-12.9-5.3-18.1c4.7-22.1,2.9-45.5-6-67
		c-3.6-8.7-8.2-16.8-13.7-24.2c-2.1-2.9-4.4-5.7-6.8-8.3c-6.4-7.1-13.7-13.4-21.7-18.8c-1.3-13.9-4.7-27.7-10-40.5
		c-22.9-55.3-77.7-89.1-135.7-86.2c-21.6-39.4-62.7-63.9-107-65.5c6.3-38.9,29-69.6,58.8-76.6c21.5-5.1,43.9,1.7,62.2,18.3
		C464.7,10.4,482.5,1.5,501,0.5c20-1.1,38.9,6.5,54.8,21.7c21.1,20.2,34.3,52.1,36.3,86.7c18.2,3.8,34.6,13.7,48.2,29.1
		c22.8,25.7,34.3,63.4,31.7,103.4c-0.3,4.4-0.8,8.8-1.5,13.2c17.7,3.3,33.9,11.9,47,25.1h0c0.6,0.6,1.2,1.2,1.7,1.8
		c0.8,0.8,1.5,1.6,2.2,2.4C743.3,308.6,753,344.3,748.1,381.9z"/>
	<path class="st0" d="M615.5,579.4h-88.4c9.1-16.4,11-30.7,11.3-33.3c0-0.2,0-0.3,0-0.4c0.7-7.6-4.9-14.4-12.6-15.1
		c-7.6-0.7-14.4,4.9-15.1,12.5c0,0.2-0.1,1.3-0.5,3c-1.1,5.6-4.6,18-14.3,30.1c-2.6-9.8-5.4-19.3-8.3-28.4
		c-7.6-24-16.1-45.7-25.3-65.4c-0.4-1.5-1.1-2.8-2-4.1c-3.6-7.4-7.3-14.6-11-21.4c-6.5-11.9-13.2-22.9-20.1-33.1
		c-9.7-14.5-19.7-27.3-29.7-38.7c32.6-43.7,18.1-93.9,4.7-115.7c-4-6.5-12.6-8.6-19.1-4.6c-6.5,4-8.6,12.5-4.6,19.1
		c1.2,1.9,24.6,42.1-0.5,80.6c-3.4-3.3-6.9-6.6-10.2-9.6c-62.6-55.7-125.2-70.4-148.7-74.1c-10.6-25.7-36.7-41.1-37.9-41.8
		c-6.6-3.9-15.2-1.6-19,5c-3.8,6.6-1.6,15.1,5,19c4.4,2.6,14,9.8,20.8,19.1c-31,8.9-52.9,37.5-54,39c-4.6,6.1-3.4,14.8,2.7,19.5
		c4.1,3.1,9.3,3.6,13.7,1.7c2.2-0.9,4.2-2.4,5.8-4.5c6.8-8.9,29.2-31.8,51.6-30.5c3.9,0.3,30.6,3,66.3,18.7
		c-52.5,17.4-81.6,47.2-83.1,48.7c-5.3,5.5-5.1,14.4,0.4,19.7c4.1,3.9,10,4.8,15,2.8c1.7-0.7,3.3-1.8,4.7-3.2
		c0.8-0.8,36.8-36.8,99.3-48.6c18.2,11.4,37.4,26.3,56.2,45.6c0.7,1.7,1.8,3.3,3.2,4.6c0.9,0.9,2,1.6,3.1,2.1
		c14.5,15.8,28.6,34.2,41.8,55.8c1,1.7,2.1,3.4,3.1,5.2c-1.5-0.3-3.1-0.5-4.6-0.7c-35-4.3-69,8.9-71,9.7c0,0-0.1,0-0.1,0.1
		c-7,2.9-10.4,10.9-7.6,18c2.8,7.1,10.9,10.6,18,7.8c0.4-0.2,27-10.5,53.4-8.4c11.1,0.9,22.1,3.9,31.1,10.8c0.2,0.5,0.4,0.9,0.6,1.4
		c8.6,18.7,16.4,39.3,23.4,61.8c0.9,3,1.8,6.1,2.7,9.2c3.3,11.5,6.4,23.5,9.2,36c0.1,0.3,0.2,0.6,0.2,1c0.8,3.6,1.6,7.2,2.3,10.8
		c3.7,18.7,6.8,38,9.2,57.7c0.2,1.9,0.3,3.8,0.2,5.7h0.9c4.6,37.8,7,79.3,6.8,125.2l-0.6,7.4l-0.6,6.9c-11.4-0.9-22.2-4.1-31.4-9.8
		c-4.1-2.6-7.8-5.6-10.9-8.9c-7.7-11.9-12.9-25.5-15-40.1c-0.3-3.5-0.6-7-0.9-10.4c0-1.2-0.1-2.4-0.1-3.6V707c-2.5-0.9-5-1.9-7.5-3
		c-10.6-44-29.8-74.8-57.2-92c-0.6-0.4-1.3-0.8-1.9-1.2c-50.2-29.7-118.2-9.2-154.5,5.8c-18.9,7.8-31.2,15-31.3,15.1l-12.4,7.3
		l-6.8-12.7c-0.9-1.7-21.8-41.5-9.3-79.6c0.7-2.2,1.6-4.4,2.5-6.5c-7.5,1.3-15.1,1.9-22.9,1.9c-53.8-0.4-101.8-31-122.5-78.1
		c-21.7-49.6-11-106.7,26.5-145c-11-45.4,9.6-93,50-116.3c-1.4-4.4-2.3-9-2.8-13.7c-3.1-28.8,11.6-57.6,36.5-71.6
		c16.3-9.1,34.3-11.5,51.6-7.7c8.7-12.8,20.8-22.9,35.1-28.8c36.7-15.2,78.4-0.7,98.3,32.3c45.5-8.9,92.4,15.5,110.5,59.2
		c1,2.4,1.8,4.7,2.7,7.2c52.3-11.4,106.1,15.9,127.2,66.7c6.1,14.7,8.9,30.6,8.4,46.5c6.8,3.1,13,7,18.7,11.6c3.6,2.9,7,6.1,10,9.6
		c6.2,7.1,11.3,15.2,15,24.1c5.5,13.3,7.4,27.4,6.1,41.1c-0.8-0.1-1.6-0.1-2.4-0.1h0c-6.2,0-12,1.7-17,4.6
		c-4.3-2.6-9.3-4.2-14.6-4.6c-0.8-0.1-1.6-0.1-2.4-0.1h0c-18.4,0-33.3,14.9-33.3,33.3c0,14.2,8.9,26.3,21.4,31.1
		c3.7,1.4,7.7,2.2,12,2.2h0c6.1,0,11.9-1.7,16.8-4.5c0.1,0,0.1-0.1,0.2-0.1c1.6,1,3.3,1.8,5,2.4c13.8,35.8,21.4,69.1,24.1,102.2
		C615.4,557.2,615.7,568.3,615.5,579.4z"/>
	<path class="st1" d="M1068.4,612.8c0-20-8.8-37.9-22.7-50.1c14.3-12.7,23.2-31.6,20.5-53.9c-9.8-81.4-51.9-140.2-113.4-177.6
		c-60.1-36.6-137.1-51.8-217.8-51.8c-5.8,0-11.7,0.1-17.5,0.2h0c-10.8,0.3-21.6,0.9-32.3,1.8c-28.2,2.4-55.5,6.8-81.4,13.7
		c-9.3,2.5-18.3,5.2-27.2,8.3c-1,0.4-2.1,0.7-3.1,1.1c-8.2,2.9-16.2,6.1-24,9.6c-11.2,5.1-22.1,10.7-32.4,17
		c-37.5,22.8-67.8,53.6-87.9,92.6c-4.9,9.4-9.1,19.3-12.8,29.7c-0.4,1.1-0.8,2.2-1.2,3.4c-0.1,0.4-0.2,0.8-0.4,1.1
		c-2.9,8.7-5.3,17.7-7.3,27.1c-0.8,4-1.6,8-2.2,12.1c-0.6,3.8-1.2,7.7-1.6,11.6c-1.1,9.2-0.2,17.9,2.2,25.7c-1.2,1-2.5,2-3.7,3.1
		c-1.7,1.5-3.3,3-4.8,4.5c-18.4,18.4-28.7,42.8-29.2,68.8c0,0.6,0,1.2,0,1.8c0,22.8,7.9,45.1,22.2,62.8c9.9,12.3,22.7,22,37,28.5
		c2.4,1.1,4.9,2.1,7.5,3v39.1c0,1.2,0,2.4,0.1,3.6c0.1,3.5,0.4,7,0.9,10.4c2,14.6,7.3,28.2,15,40.1c2.7,4.2,5.7,8.1,8.9,11.8
		c18.3,20.9,45.2,34,75.2,34h400c55.2,0,100-44.8,100-100v-66.7h-33.3c18.4,0,35.1-7.5,47.1-19.5
		C1060.9,647.8,1068.4,631.2,1068.4,612.8z M701.7,446.1L701.7,446.1c1.7,0,3.4,0.1,5,0.4c4.3,0.6,8.4,2.1,12,4.3
		c9.8,5.8,16.4,16.5,16.4,28.7c0,12.2-6.6,22.9-16.4,28.7c-4.1,2.4-8.8,4-13.8,4.5c-1,0.1-2.1,0.1-3.2,0.1h0
		c-18.4,0-33.3-14.9-33.3-33.3C668.4,461,683.3,446.1,701.7,446.1z M568.4,379.4L568.4,379.4c0.8,0,1.6,0,2.4,0.1
		c5.3,0.4,10.3,2,14.6,4.6c4.4,2.6,8.2,6.3,11,10.6c3.4,5.2,5.3,11.4,5.3,18.1c0,12.2-6.6,22.9-16.4,28.7c-0.1,0-0.1,0.1-0.2,0.1
		c-4.9,2.9-10.7,4.5-16.8,4.5h0c-4.2,0-8.2-0.8-12-2.2c-12.5-4.8-21.4-16.9-21.4-31.1C535.1,394.4,550,379.4,568.4,379.4z
		 M801.7,679.4H486.8c0.1-1.9,0-3.8-0.2-5.7c-2.4-19.7-5.5-39.1-9.2-57.7c-0.2-1.1-0.4-2.1-0.6-3.2h220.5c14.6,0,27.5-9.5,31.8-23.4
		c1-3.3,1.5-6.6,1.5-9.9h171.1L801.7,679.4z M868.4,446.1L868.4,446.1c-18.4,0-33.4-14.9-33.4-33.3c0-18.4,14.9-33.3,33.3-33.3h0
		c18.4,0,33.3,14.9,33.3,33.3C901.8,431.2,886.8,446.1,868.4,446.1z"/>
</g>
<g>
	<path class="st0" d="M1406.9,500.7h113.5l-145.7,345.8H1289l-145.7-345.8h113l75.5,222.9L1406.9,500.7z"/>
	<path class="st0" d="M1645.6,836c-26.3-10.3-46.6-25.3-60.7-44.8c-14.1-19.5-21.2-43-21.2-70.3v-88.6c0-28.9,6.8-53.5,20.3-74
		c13.5-20.4,33.1-36,58.7-46.8c25.6-10.8,56.5-16.2,92.7-16.2c35.3,0,65.5,5.9,90.5,17.7c25,11.8,44.1,28.9,57.2,51.5
		c13.1,22.5,19.6,49.8,19.6,81.8v61h-255.2v-61.6h147v-24.7c0-14.7-5.5-26.3-16.6-34.8c-11-8.5-25.2-12.8-42.6-12.8
		c-19.7,0-35.2,4.8-46.4,14.5c-11.2,9.7-16.8,23.3-16.8,40.8v94c0,16.9,5.7,29.8,17.2,38.8c11.5,9,27.7,13.5,48.6,13.5
		c15.9,0,29.1-3,39.5-9c10.4-6,18.2-14.8,23.2-26.3l96.7,27.7c-8.8,28-26.6,49-53.2,63.1c-26.6,14.1-61,21.2-103.1,21.2
		C1703.8,851.5,1672,846.3,1645.6,836z"/>
	<path class="st0" d="M2039.5,837.5c-18.1-9.5-32-23.5-41.7-41.8s-14.6-40.3-14.6-65.8V617.6c0-25.8,4.9-47.9,14.6-66.3
		c9.7-18.4,23.7-32.4,42-41.8c18.2-9.4,40.3-14.2,66.2-14.2c22.1,0,42.3,5.5,60.7,16.5c18.4,11,33.2,26.4,44.4,46.1l-9.3,60
		c0-9.1-2-16.8-6-23.2s-9.8-11.2-17.4-14.7c-7.7-3.4-17.1-5.2-28.3-5.2c-16.2,0-29.1,4.3-38.6,13c-9.6,8.7-14.4,20.8-14.4,36.3v99.6
		c0,15.3,4.7,27.2,14.1,35.6c9.4,8.4,22.4,12.7,38.9,12.7c11.2,0,20.6-1.7,28.3-5.2c7.7-3.4,13.5-8.3,17.4-14.7s6-14,6-23.2l6.2,63
		c-7.9,18.9-21,33.5-39.1,44c-18.1,10.4-39.1,15.7-62.9,15.7C2079.8,851.8,2057.6,847,2039.5,837.5z M2037.5,964.6
		c-25.6-15-41.5-37.3-47.7-66.8l111.3-26c3.2,11.1,9.3,19.6,18.1,25.5c8.8,5.9,19.7,8.8,32.7,8.8c15.3,0,27.4-3.7,36.4-11
		c9-7.3,13.5-17.2,13.5-29.7V500.7h115.7v361.1c0,26.4-6.9,49-20.8,67.6c-13.8,18.7-33.9,32.9-60.1,42.8
		c-26.2,9.9-57.7,14.8-94.5,14.8C2098,987.1,2063.1,979.6,2037.5,964.6z"/>
	<path class="st0" d="M2490.8,836c-26.3-10.3-46.6-25.3-60.7-44.8c-14.1-19.5-21.2-43-21.2-70.3v-88.6c0-28.9,6.8-53.5,20.3-74
		c13.5-20.4,33.1-36,58.7-46.8c25.6-10.8,56.5-16.2,92.7-16.2c35.3,0,65.5,5.9,90.5,17.7c25,11.8,44.1,28.9,57.2,51.5
		c13.1,22.5,19.6,49.8,19.6,81.8v61h-255.2v-61.6h147v-24.7c0-14.7-5.5-26.3-16.6-34.8c-11-8.5-25.2-12.8-42.6-12.8
		c-19.7,0-35.2,4.8-46.4,14.5c-11.2,9.7-16.8,23.3-16.8,40.8v94c0,16.9,5.7,29.8,17.2,38.8c11.5,9,27.7,13.5,48.6,13.5
		c15.9,0,29.1-3,39.5-9c10.4-6,18.2-14.8,23.2-26.3l96.7,27.7c-8.8,28-26.6,49-53.2,63.1c-26.6,14.1-61,21.2-103.1,21.2
		C2549,851.5,2517.1,846.3,2490.8,836z"/>
	<path class="st2" d="M2842.5,362.1h114.8v484.4h-114.8V362.1z M2900.4,763.9h150.1c20.6,0,36.6-3.9,47.9-11.7
		c11.3-7.8,17-18.7,17-32.6v-33.3c0-10.2-2.5-18.9-7.5-26c-5-7.1-12.5-12.5-22.5-16.3c-10-3.8-21.9-5.7-35.8-5.7h-149.3V556h147.9
		c19.1,0,33.9-3.9,44.4-11.7c10.4-7.8,15.7-18.9,15.7-33.3v-26c0-12.9-5.3-22.9-15.9-30c-10.6-7.1-25.3-10.7-44.2-10.7h-147.9v-82.3
		h155.9c35.3,0,65.4,4.6,90.3,13.7c24.9,9.1,43.8,22.3,56.7,39.5c13,17.2,19.4,38,19.4,62.5V504c0,16.4-4.3,31.2-12.8,44.1
		c-8.5,13-21.1,23.6-37.5,31.8c-16.5,8.2-36.2,13.8-59.2,16.7c24.7,2.4,45.9,8.1,63.6,16.8c17.7,8.8,31.1,20.2,40.4,34.1
		c9.3,14,13.9,30.2,13.9,48.6v33.6c0,24.7-6.5,45.7-19.4,63.1c-13,17.4-31.9,30.7-57,39.8c-25,9.1-55.1,13.7-90.1,13.7h-164.3V763.9
		z"/>
	<path class="st2" d="M3391.6,833.7c-29-11.9-51.1-29.2-66.2-51.8c-15.2-22.7-22.7-49.9-22.7-81.6V362.1h115.3v340.5
		c0,19.8,6.8,35.1,20.5,46.1c13.7,11,32.9,16.5,57.6,16.5c25,0,44.4-5.5,58.3-16.5c13.8-11,20.8-26.4,20.8-46.1V362.1h115.3v338.2
		c0,31.8-7.7,59-23,81.6c-15.3,22.7-37.5,39.9-66.7,51.8c-29.1,11.9-64,17.8-104.7,17.8S3420.6,845.5,3391.6,833.7z"/>
	<path class="st2" d="M3784,361.7h113.9v484.7H3784V361.7z M3832.5,563h169.1c10.9,0,20.5-1.8,28.7-5.5c8.2-3.7,14.5-8.8,18.8-15.5
		c4.3-6.7,6.4-14.4,6.4-23.3v-27.3c0-9.3-2.1-17.5-6.4-24.5c-4.3-7-10.5-12.3-18.5-16c-8.1-3.7-17.7-5.5-28.9-5.5h-169.1v-83.6H4003
		c35,0,65.4,5.1,91.2,15.3c25.8,10.2,45.6,24.9,59.4,44.1c13.8,19.2,20.8,41.8,20.8,67.8v28.3c0,26.4-6.9,49.4-20.8,68.8
		c-13.8,19.4-33.6,34.4-59.4,44.8c-25.8,10.4-56.2,15.7-91.2,15.7h-170.4V563z M3944.7,631.6l114.8-15.3l137.3,230.2h-131.6
		L3944.7,631.6z"/>
	<path class="st2" d="M4653.9,580.3v119.9c0,30.7-8,57.4-24.1,80.3c-16,22.9-38.9,40.4-68.4,52.6c-29.6,12.2-64.2,18.3-104,18.3
		c-40.3,0-75.5-5.8-105.5-17.5c-30-11.7-53.1-28.4-69.3-50.1c-16.2-21.8-24.3-47.3-24.3-76.6V510c0-31.1,8-58.1,24.1-81.1
		c16-23,38.9-40.7,68.4-53.1c29.6-12.4,64.2-18.7,104-18.7c39.7,0,73.4,5.6,101.1,16.8c27.7,11.2,49.3,28,64.9,50.3
		c15.6,22.3,24.9,50.4,27.8,84.1H4528c-1.5-14-5.4-25.6-11.7-34.8c-6.3-9.2-14.7-16-25.2-20.5c-10.5-4.4-22.6-6.7-36.4-6.7
		c-15.6,0-29.3,2.6-41.1,7.8c-11.8,5.2-20.8,12.7-27.2,22.3c-6.3,9.7-9.5,20.8-9.5,33.5v197.2c0,10.9,3.2,20.5,9.7,29
		c6.5,8.4,15.8,14.9,28,19.3c12.2,4.4,26.4,6.7,42.6,6.7c16.2,0,30.2-2.4,42.2-7.2c11.9-4.8,21.2-11.8,27.8-21
		c6.6-9.2,9.9-20.2,9.9-32.8v-37.3h-75.5v-83.6H4653.9z"/>
</g>
</svg>
