<?xml version="1.0" encoding="utf-8"?>
<!-- Generator: Adobe Illustrator 23.0.2, SVG Export Plug-In . SVG Version: 6.00 Build 0)  -->
<svg version="1.1" id="Layer_2_xA0_Image_1_" xmlns="http://www.w3.org/2000/svg" xmlns:xlink="http://www.w3.org/1999/xlink"
	 x="0px" y="0px" viewBox="0 0 2101 2048" style="enable-background:new 0 0 2101 2048;" xml:space="preserve">
<style type="text/css">
	.st0{fill:#330000;}
	.st1{fill:#FF9A00;}
</style>
<path class="st0" d="M2104,346c0,453.3,0,906.7,0,1360c-0.8,8.2-1.3,16.3-2.5,24.4c-5.7,40.5-17.4,79.2-35.9,115.6
	c-20.3,40-46.8,75.5-80.1,106c-52.3,48-113.1,78.7-182.6,92.2c-10.3,2-20.6,3.8-30.9,5.7c-478.7,0-957.3,0-1436,0
	c-1.4-0.6-2.9-1.5-4.3-1.6c-45.1-5.1-87.8-18.2-128-39.2c-38.4-20-72.3-45.9-101.8-77.7c-24-25.8-43.8-54.5-59.6-85.8
	c-17-33.8-28.6-69.4-34.4-106.9C6.2,1728.5,4,1718.3,2,1708c0-454,0-908,0-1362c2-10.9,4.3-21.8,6-32.8
	c5.8-37.5,17.6-73.1,34.7-106.8C63,166.3,89.7,130.8,123,100.3c26-23.8,54.5-43.7,85.9-59.4c36.6-18.2,75.2-30.2,115.8-35.4
	c7.8-1,15.5-2.4,23.3-3.6c470.7,0,941.3,0,1412,0c1.2,0.5,2.3,1.3,3.5,1.4c13.5,1.8,27.2,2.6,40.4,5.3
	c79.2,16.2,146.8,53.2,202,112.6c29.5,31.8,52.8,67.5,69.5,107.4c15.1,36.1,25.7,73.3,27.1,112.7C2102.6,343,2103.5,344.5,2104,346z
	"/>
<g>
	<path class="st1" d="M432,1431c43.7-125.8,87.4-251.7,131.2-377.5c50.4-144.9,100.7-289.9,151.1-434.8c9.7-27.8,15-56.3,14.5-85.8
		c-0.2-8.4,3-11.6,11.2-11.6c73.5,0,147,0,220.5,0c11.6,0,12.6,2.1,16,11.7c56.1,158.4,112.4,316.8,168.5,475.2
		c42.8,120.7,85.5,241.4,128.2,362.1c6.6,18.6,13.2,37.1,19.8,55.6c0.4,1.1,0.8,2.2,1.1,3.3c3.4,11.4,0.4,15.4-11.5,15.4
		c-60.3,0.1-120.7,0.1-181,0.1c-7.1,0-11.4-3.1-14-10.5c-13.7-39.5-27.3-79.1-40.9-118.6c-9.7-28.1-19.4-56.3-29-84.4
		c-1.1-3.1-2.5-4.4-6-4.4c-105.5,0.1-211,0.1-316.5,0c-4.2,0-4.9,2.3-5.8,5.2c-21.4,66.1-42.7,132.2-64.1,198.2
		c-3.9,11.9-7.5,14.5-20.3,14.5c-52.7,0-105.3,0-158,0c-3,0-6.3,0.4-8.9-0.7c-2.4-1.1-4.1-3.9-6.1-5.9
		C432,1435.7,432,1433.3,432,1431z M963.3,1047.8C925,926.6,884.9,806.6,851.4,683.7c-0.8,1.1-1,1.4-1.1,1.6
		c-5.6,23-10.3,46.2-16.9,68.8c-15,51.1-31,101.8-46.7,152.7c-13.7,44.4-27.7,88.7-41.5,133c-0.8,2.6-1.7,5.2-2.6,7.9
		C816.3,1047.8,889.4,1047.8,963.3,1047.8z"/>
	<path class="st1" d="M1390.7,1097.1c0-111.6,0-223.3,0-334.9c0-11.3,3.2-14.5,14.5-14.5c56.2,0,112.3,0,168.5,0
		c10.2,0,13.7,3.5,14.1,13.7c0.1,1.5,0,3,0,4.5c0,221.1,0,442.2,0,663.3c0,2.8-0.1,5.7-0.3,8.5c-0.7,8.1-4.3,11.4-12.6,11.6
		c-7,0.1-14,0-21,0c-48.8,0-97.6,0-146.5,0c-12.6,0-16.7-4.2-16.7-16.8C1390.7,1320.7,1390.7,1208.9,1390.7,1097.1z"/>
	<path class="st1" d="M1489.6,675.3c-27.1,1.1-52.3-7.8-73.7-26.4c-17.8-15.4-28.2-35.6-32.4-58.6c-5.7-31-3.3-61,15-87.9
		c17.3-25.5,41.6-40.5,71.8-45.8c26.2-4.5,51.7-2.1,75.6,10.1c27.5,14,44,37.3,50.7,66.8c9.7,42.7,2.2,81.7-29.9,113.5
		C1545.9,667.7,1520.1,676.3,1489.6,675.3z"/>
</g>
</svg>
