<?xml version="1.0" encoding="utf-8"?>
<!-- Generator: Adobe Illustrator 23.0.2, SVG Export Plug-In . SVG Version: 6.00 Build 0)  -->
<svg version="1.1" xmlns="http://www.w3.org/2000/svg" xmlns:xlink="http://www.w3.org/1999/xlink" x="0px" y="0px"
	 viewBox="0 0 2101 2048" style="enable-background:new 0 0 2101 2048;" xml:space="preserve">
<style type="text/css">
	.st0{fill:#001E36;}
	.st1{fill:#31A8FF;}
</style>
<g id="Layer_3_xA0_Image_1_">
	<path class="st0" d="M2104,346c0,453.3,0,906.7,0,1360c-0.8,8.2-1.3,16.3-2.5,24.4c-5.7,40.5-17.4,79.2-35.9,115.6
		c-20.3,40-46.8,75.5-80.1,106c-52.3,48-113.1,78.7-182.6,92.2c-10.3,2-20.6,3.8-30.9,5.7c-478.7,0-957.3,0-1436,0
		c-1.4-0.6-2.9-1.5-4.3-1.6c-45.1-5.1-87.8-18.2-128-39.2c-38.4-20-72.3-45.9-101.8-77.7c-24-25.8-43.8-54.5-59.6-85.8
		c-17-33.8-28.6-69.4-34.4-106.9C6.2,1728.5,4,1718.3,2,1708c0-454,0-908,0-1362c2-10.9,4.3-21.8,6-32.8
		c5.8-37.5,17.6-73.1,34.7-106.8C63,166.3,89.7,130.8,123,100.3c26-23.8,54.5-43.7,85.9-59.4c36.6-18.2,75.2-30.2,115.8-35.4
		c7.8-1,15.5-2.4,23.3-3.6c470.7,0,941.3,0,1412,0c1.2,0.5,2.3,1.3,3.5,1.4c13.5,1.8,27.2,2.6,40.4,5.3
		c79.2,16.2,146.8,53.2,202,112.6c29.5,31.8,52.8,67.5,69.5,107.4c15.1,36.1,25.7,73.3,27.1,112.7C2102.6,343,2103.5,344.5,2104,346
		z"/>
	
		<image style="overflow:visible;" width="2101" height="2048" xlink:href="../_README-icons/Adobe_Photoshop_CC_icon.svg.png"  transform="matrix(1 0 0 1 2859 1557)">
	</image>
</g>
<g id="Layer_4_xA0_Image_1_">
	<path class="st1" d="M715,552c7.6,0.4,15.3,0.4,22.8,1.2c26.1,2.7,52.4,4.2,78.1,8.9c68.4,12.5,130.5,39,181,88.4
		c37.2,36.4,61.3,80.6,74.3,130.9c6.8,26.5,10.8,53.4,10.8,80.7c0,58.5-8.7,115.2-38.2,166.8c-32.4,56.7-79.6,97.1-139.1,123.2
		c-30.3,13.3-62.1,21.5-94.6,27.2c-48.4,8.5-97.2,9.8-146.2,8.9c-17.6-0.3-35.2-1.1-53.7-1.6c0,2.6,0,4.7,0,6.8
		c0,90.8,0,181.7,0,272.5c0,10.2-4.1,14.3-14.1,14.3c-54.5,0-109,0-163.5,0c-8.6,0-11-1.7-13.7-9.3c0-302,0-604,0-906
		c1.5-3.8,3.2-7.2,8.2-7.3c39.1-1,78.1-2.1,117.2-2.9c36.6-0.8,73.2-1.4,109.7-2.2c1.3,0,2.6-0.4,3.9-0.6C677,552,696,552,715,552z
		 M611.4,1020.7c8.1,0.4,15.7,1,23.3,1.1c38.9,0.6,77.9,2.5,116.4-5.1c22.4-4.4,44.8-9.4,65.3-20c28.4-14.8,52.2-34.7,63.8-65.8
		c11.8-31.6,13.6-64.3,6.3-97c-9.6-42.7-35-73.1-75.7-90c-27.7-11.5-56.7-17.6-86.6-17.9c-34.3-0.5-68.6,0.2-103,0.4
		c-3.2,0-6.5,0.8-9.8,1.2C611.4,825.4,611.4,922.7,611.4,1020.7z"/>
	<path class="st1" d="M1174.7,1366.8c0-25.2,0-50.3,0-75.5c0-10.4,4.9-13.6,13.8-8.3c42,24.9,87.8,39.2,135.4,48.4
		c31.5,6,63.3,8.1,95.3,6.2c17.4-1,34.5-4,50.7-11.1c20.7-8.9,36.3-39.3,11.6-63.9c-11.8-11.8-25.9-19.7-40.9-26.1
		c-29.1-12.4-58.7-23.7-87.7-36.1c-35.8-15.4-70.3-33.5-100.8-58c-29.8-23.9-53-53.1-65.6-89.9c-6.4-18.7-9.6-37.8-10.1-57.5
		c-1-38.6,7.4-74.8,26.4-108.4c21.1-37.1,51.7-64.3,89.4-83.8c32.5-16.8,67.1-26.1,103.3-30.2c33-3.8,66.1-4.2,99.2-1.8
		c26.1,1.9,52.3,4.6,78.2,8.2c22.5,3.1,44.2,9.9,65.2,18.6c7.4,3,10,9.2,10,16.4c0.2,48.5,0.1,97,0.1,145.5c0,5.4-2.4,8.1-7.6,9.3
		c-5.3,1.3-10.4,1-15.4-1.6c-32.4-17.1-67.2-26.5-103.1-32.8c-26.1-4.6-52.3-6.9-78.8-7.3c-18.2-0.3-36.1,2.1-53.5,7.4
		c-18.4,5.6-29,18.8-30.2,37.7c-0.6,9.8,3.7,18.1,9.9,25.4c8.9,10.4,20.1,17.9,32.1,24.1c29.6,15.3,60.7,27.2,91.7,39.3
		c41.7,16.3,81.8,36.1,117.7,63.1c35.4,26.6,59.5,61.4,69,105.3c4.9,22.6,5.4,45.5,3.5,68.5c-2.8,32.9-12.9,63.3-30.9,90.9
		c-24.5,37.6-58.3,64.2-99.6,81.7c-31.5,13.3-64.4,21.1-98.3,25c-32.3,3.7-64.7,4-97.2,2.2c-40-2.1-79.6-7.6-118.2-18.3
		c-18.1-5-35.6-12.5-53.1-19.3c-7.7-3-11.7-9.1-11.6-18C1174.8,1416.8,1174.7,1391.8,1174.7,1366.8z"/>
</g>
</svg>
